<svg width="128" height="128" viewBox="0 0 128 128" fill="none" xmlns="http://www.w3.org/2000/svg">
<rect width="128" height="128" rx="64" fill="#A0AEC0"/>
<path fill-rule="evenodd" clip-rule="evenodd" d="M38.8369 40.7902C38.8369 27.0969 50.0985 16 63.9951 16C77.8917 16 89.1617 27.0969 89.1617 40.7902C89.1617 54.4918 77.8917 65.5887 63.9951 65.5887C50.0985 65.5887 38.8369 54.4918 38.8369 40.7902ZM64.1789 117.333C80.7933 117.333 95.829 110.779 106.666 100.235V92.7546C106.666 83.7096 99.029 76.3688 89.5997 76.3688H38.3997C28.9703 76.3688 21.333 83.7096 21.333 92.7546V99.8579C32.1959 110.615 47.3767 117.333 64.1789 117.333Z" fill="white"/>
</svg>
